<svg width="512" height="512" viewBox="0 0 512 512" fill="none" xmlns="http://www.w3.org/2000/svg">
<rect width="512" height="512" rx="256" fill="white"/>
<path d="M158 390.577V248.577L76 185.577V360.577C76 380.577 86 390.577 106 390.577" fill="#4285F4"/>
<path d="M154 247.577L256 324.577L358 247.577V149.577L256 226.577L154 149.577" fill="#EA4335"/>
<path d="M354 390.577V248.577L436 185.577V360.577C436 380.577 426 390.577 406 390.577" fill="#34A853"/>
<path d="M76 187.577L158 250.577V152.577L128 129.577C101 108.577 76 129.577 76 155.577" fill="#C5221F"/>
<path d="M436 187.577L354 250.577V152.577L384 129.577C411 108.577 436 129.577 436 155.577" fill="#FBBC04"/>
</svg>
