<svg xmlns="http://www.w3.org/2000/svg" width="50" height="50"><path d="M8 3.008c-3.469 0-5.992 2.082-5.992 4.941 0 2.871 2.582 5.04 5.992 5.04 3.469 0 5.988-2.118 5.988-5.098C13.832 5.02 11.36 3.008 8 3.008M3 15c-.55 0-1 .45-1 1v29c0 .55.45 1 1 1h10c.55 0 1-.45 1-1V16c0-.55-.45-1-1-1Zm15 0c-.55 0-1 .45-1 1v29c0 .55.45 1 1 1h9c.55 0 1-.45 1-1V29.5c0-2.371 1.82-4.3 4.14-4.48.122-.02.239-.02.36-.02s.238 0 .36.02c2.32.18 4.14 2.109 4.14 4.48V45c0 .55.45 1 1 1h9c.55 0 1-.45 1-1V28c0-6.469-3.473-13-11.21-13-3.52 0-6.18 1.36-7.79 2.488V16c0-.55-.45-1-1-1Zm0 0" style="stroke:none;fill-rule:nonzero;fill:#676b7e;fill-opacity:1"/></svg>