<svg xmlns="http://www.w3.org/2000/svg" width="49" height="49" fill="none"><path fill="#676B7E" d="m11.463 43.542.399-.554c.314-.436 7.68-10.735 7.68-16.78 0-5.582-3.751-9.333-9.334-9.333-5.582 0-9.333 3.75-9.333 9.333 0 6.045 7.366 16.344 7.68 16.78l.399.554zM3.542 26.208c0-4.05 2.616-6.666 6.666-6.666s6.667 2.616 6.667 6.666c0 3.976-4.418 11.224-6.667 14.495-2.248-3.271-6.666-10.52-6.666-14.495m34.745 1.334h2.51l.398-.554c.314-.436 7.68-10.735 7.68-16.78 0-5.582-3.75-9.333-9.333-9.333s-9.334 3.75-9.334 9.333c0 6.045 7.366 16.344 7.68 16.78zm1.255-24c4.05 0 6.666 2.616 6.666 6.666 0 3.976-4.418 11.224-6.666 14.495-2.249-3.271-6.667-10.52-6.667-14.495 0-4.05 2.617-6.666 6.667-6.666m3.666 40c0 2.65-2.175 5.333-6.333 5.333h-28v-2.667h28c2.533 0 3.667-1.339 3.667-2.666 0-1.328-1.134-2.667-3.667-2.667h-8c-4.158 0-6.333-2.683-6.333-5.333s2.175-5.334 6.333-5.334h12v2.667h-12c-2.533 0-3.667 1.34-3.667 2.667s1.134 2.666 3.667 2.666h8c4.158 0 6.333 2.683 6.333 5.334m-3.666-32c-.174 0-.347-.04-.508-.107a1.4 1.4 0 0 1-.439-.28c-.053-.067-.12-.134-.16-.2a1 1 0 0 1-.12-.24.9.9 0 0 1-.08-.24c-.014-.093-.027-.174-.027-.267a1.4 1.4 0 0 1 .387-.946 1.4 1.4 0 0 1 .44-.28 1.33 1.33 0 0 1 1.453.28c.053.066.12.132.16.2q.08.12.12.24.06.12.08.24c.013.092.027.186.027.266 0 .093-.014.174-.027.267a.9.9 0 0 1-.08.24q-.04.12-.12.24c-.04.066-.106.133-.16.2-.253.24-.6.387-.946.387m-29.334 16c-.347 0-.693-.148-.946-.387-.24-.253-.387-.6-.387-.947a1.4 1.4 0 0 1 .387-.946c.373-.36.96-.494 1.453-.28.173.066.306.16.44.28q.18.2.28.44c.066.16.107.332.107.506 0 .347-.147.694-.387.947-.253.24-.6.387-.947.387"/></svg>