<svg width="512" height="512" viewBox="0 0 512 512" fill="none" xmlns="http://www.w3.org/2000/svg">
<rect width="512" height="512" rx="256" fill="white"/>
<path fill-rule="evenodd" clip-rule="evenodd" d="M106.906 212.396L109.238 216.444L206.522 384.942L216.048 390.442L206.588 385.063L208.931 389.111C215.674 400.804 228.797 408.57 245.968 409.67C260.895 410.627 277.879 406.37 293.125 397.57C311.319 387.065 327.5 377.726 327.5 377.726C332.758 374.69 334.562 367.958 331.526 362.7L299.098 306.534C296.062 301.276 289.33 299.472 284.072 302.508L265.482 313.233L200.824 201.231L219.403 190.506C224.672 187.47 226.476 180.738 223.429 175.48L191.001 119.314C187.965 114.045 181.244 112.241 175.975 115.288C175.975 115.288 159.794 124.627 141.611 135.132C126.365 143.932 114.177 156.516 107.544 169.914C99.91 185.347 100.086 200.593 106.829 212.275L106.906 212.396ZM255.791 212C280.079 212 299.791 231.712 299.791 256C299.791 262.072 304.719 267 310.791 267C316.863 267 321.791 262.072 321.791 256C321.791 219.579 292.212 190 255.791 190C249.719 190 244.791 194.928 244.791 201C244.791 207.072 249.719 212 255.791 212ZM255.791 168C304.356 168 343.791 207.435 343.791 256C343.791 262.072 348.719 267 354.791 267C360.863 267 365.791 262.072 365.791 256C365.791 195.291 316.5 146 255.791 146C249.719 146 244.791 150.928 244.791 157C244.791 163.072 249.719 168 255.791 168ZM255.791 124C328.644 124 387.791 183.147 387.791 256C387.791 262.072 392.719 267 398.791 267C404.863 267 409.791 262.072 409.791 256C409.791 171.003 340.788 102 255.791 102C249.719 102 244.791 106.928 244.791 113C244.791 119.072 249.719 124 255.791 124Z" fill="#995F3A"/>
</svg>
