<svg xmlns="http://www.w3.org/2000/svg" width="49" height="50" fill="none"><path fill="#676B7E" d="M14.864 33.575c4.7 0 8.525-3.824 8.525-8.525 0-4.7-3.824-8.525-8.525-8.525-4.7 0-8.525 3.824-8.525 8.525 0 4.7 3.824 8.525 8.525 8.525m-5.966-7.307h2.095a11.3 11.3 0 0 0 1.193 4.223c-1.661-.822-2.908-2.359-3.288-4.223m7.386 0c-.138 1.277-.553 2.633-1.42 4.015-.867-1.382-1.282-2.738-1.42-4.015zm-2.793-2.436c.245-1.6.842-2.95 1.373-3.893.53.942 1.128 2.292 1.373 3.893zm4.052 6.659a11.3 11.3 0 0 0 1.192-4.223h2.095c-.38 1.864-1.626 3.401-3.287 4.223m3.287-6.659h-2.156c-.22-1.688-.764-3.173-1.321-4.326a6.1 6.1 0 0 1 3.477 4.326m-8.455-4.326c-.557 1.153-1.101 2.638-1.32 4.326H8.898a6.1 6.1 0 0 1 3.477-4.326M7.557 40.882h14.614v2.436H7.557zM38.36 18.604l-1.218-1.218 1.722-1.722 1.218 1.218zm-1.932-5.376 1.218 1.218-1.722 1.722-1.218-1.218zm-2.435-2.435 1.218 1.218-1.722 1.722-1.218-1.218zm10.603 6.95 3.654-3.654-4.871-4.871h-.505c-1.775 0-3.653-1.878-3.653-3.653V5.06L34.35.19l-6.95 6.95 1.721 1.722 5.229-5.228 2.464 2.464c.29 2.749 2.779 5.238 5.528 5.528l2.464 2.464-15.328 15.328V11.654a2.44 2.44 0 0 0-2.436-2.436H.25v40.189h26.792a2.44 2.44 0 0 0 2.436-2.436v-6.803L48.25 21.396zM27.043 46.97H2.686V11.654h24.356zm2.436-14.11 13.396-13.396 1.932 1.931-15.328 15.328zm2.079-24.504 1.218 1.218-1.722 1.722-1.218-1.218z"/></svg>