<svg xmlns="http://www.w3.org/2000/svg" width="49" height="45" fill="none"><path fill="#676B7E" d="M22.78 7.053c.24.254.387.6.387.947 0 .093-.013.173-.028.266a.8.8 0 0 1-.08.24q-.04.12-.119.24l-.16.2-.2.16a1 1 0 0 1-.24.12.9.9 0 0 1-.24.08c-.094.014-.187.027-.267.027-.346 0-.694-.147-.946-.386-.054-.067-.12-.134-.16-.2a1 1 0 0 1-.12-.24.9.9 0 0 1-.08-.24c-.014-.094-.027-.174-.027-.267 0-.347.146-.693.387-.947.306-.306.773-.44 1.213-.36q.12.02.24.08.12.04.24.12zm1.555 23.567-6.502-1.083v-.713l1.654-.827c5.807-.11 9.013-3.19 9.013-5.33v-.553L26.386 20h-.553c-9.297 0-13.595 0-23.02 5.333H.5V28h3.02l.308-.176c8.843-5.053 12.67-5.155 21.453-5.157l.352.351c-.615.813-2.633 2.315-6.466 2.315h-.315l-3.685 1.843v4.62l9.5 1.584.358-.155c8.823-3.782 12.281-4.802 15.325-3.224L21.6 41.252l-18.152-3.89L.5 37.334V40h2.526l19.042 4.08 21.099-12.658V28.62l-.594-.396c-4.664-3.109-9.498-1.341-18.238 2.396M48.5 5.842v4.316L44.815 12h-2.2l-1.334-1.333h-.229L39.719 12H37.28l-1.333-1.333h-.23L34.386 12h-4.3c-1.387 2.387-3.965 4-6.918 4-4.412 0-8-3.588-8-8 0-4.411 3.588-8 8-8 2.953 0 5.531 1.613 6.917 4h14.731zM28.5 8a5.34 5.34 0 0 0-5.333-5.333A5.34 5.34 0 0 0 17.833 8a5.34 5.34 0 0 0 5.334 5.333A5.34 5.34 0 0 0 28.5 8m17.333-.51-1.648-.823H31.046c.074.434.12.878.12 1.333s-.046.899-.12 1.333h2.235L34.615 8h2.437l1.334 1.333h.229L39.948 8h2.438l1.333 1.333h.466l1.648-.824z"/></svg>