<svg xmlns="http://www.w3.org/2000/svg" width="18" height="14" fill="none"><path fill="#fff" fill-rule="evenodd" d="M12 7a3 3 0 1 1-6 0 3 3 0 0 1 6 0m-2 0a1 1 0 1 1-2 0 1 1 0 0 1 2 0" clip-rule="evenodd"/><path fill="#fff" fill-rule="evenodd" d="M.283 6.676c.047-.138.14-.269.326-.53l2.066-2.891a7.773 7.773 0 0 1 12.65 0l2.066 2.892c.186.26.279.39.326.529a1 1 0 0 1 0 .648c-.047.138-.14.269-.326.53l-2.066 2.891a7.773 7.773 0 0 1-12.65 0L.609 7.853c-.186-.26-.279-.39-.326-.529a1 1 0 0 1 0-.648m13.415 2.907L15.542 7l-1.844-2.583a5.773 5.773 0 0 0-9.396 0L2.458 7l1.844 2.583a5.773 5.773 0 0 0 9.395 0" clip-rule="evenodd"/></svg>