<svg width="512" height="512" viewBox="0 0 512 512" fill="none" xmlns="http://www.w3.org/2000/svg">
<rect width="512" height="512" rx="256" fill="white"/>
<path d="M125.451 394.893L139.451 329.893C121.457 301.512 114.437 267.539 119.709 234.35C124.981 201.161 142.182 171.037 168.086 149.628C193.989 128.22 226.814 116.998 260.402 118.07C293.99 119.142 326.032 132.433 350.518 155.449C375.004 178.466 390.249 209.626 393.395 243.084C396.54 276.541 387.369 309.997 367.602 337.173C347.835 364.35 318.831 383.38 286.031 390.693C253.231 398.006 218.89 393.099 189.451 376.893L125.451 394.893Z" fill="#25D366" stroke="#25D366" stroke-width="26"/>
<path d="M310.451 274.893C307.451 272.893 304.451 271.893 301.451 275.893L289.451 291.893C286.451 293.893 284.451 294.893 280.451 292.893C265.451 284.893 244.451 275.893 226.451 245.893C225.451 241.893 227.451 239.893 229.451 237.893L238.451 223.893C240.451 221.893 239.451 219.893 238.451 217.893L226.451 188.893C223.451 180.893 220.451 181.893 217.451 181.893H209.451C207.451 181.893 203.451 182.893 199.451 186.893C177.451 208.893 186.451 239.893 202.451 259.893C205.451 263.893 225.451 299.893 268.451 318.893C300.451 332.893 307.451 330.893 316.451 328.893C327.451 327.893 338.451 318.893 343.451 309.893C344.451 306.893 349.451 293.893 345.451 291.893" fill="white"/>
</svg>
